<svg width="38" height="38" viewBox="0 0 38 38" fill="none" xmlns="http://www.w3.org/2000/svg">
<path d="M36.9526 34.2995C37.1268 34.4737 37.265 34.6805 37.3593 34.9081C37.4536 35.1357 37.5021 35.3797 37.5021 35.626C37.5021 35.8724 37.4536 36.1164 37.3593 36.344C37.265 36.5716 37.1268 36.7784 36.9526 36.9526C36.7784 37.1268 36.5716 37.265 36.344 37.3593C36.1164 37.4536 35.8724 37.5021 35.626 37.5021C35.3797 37.5021 35.1357 37.4536 34.9081 37.3593C34.6805 37.265 34.4737 37.1268 34.2995 36.9526L18.751 21.4018L3.20261 36.9526C2.85078 37.3044 2.3736 37.5021 1.87604 37.5021C1.37849 37.5021 0.901306 37.3044 0.54948 36.9526C0.197654 36.6008 9.80805e-09 36.1236 0 35.626C-9.80805e-09 35.1285 0.197654 34.6513 0.54948 34.2995L16.1003 18.751L0.54948 3.20261C0.197654 2.85078 0 2.3736 0 1.87604C0 1.37849 0.197654 0.901306 0.54948 0.54948C0.901306 0.197654 1.37849 0 1.87604 0C2.3736 0 2.85078 0.197654 3.20261 0.54948L18.751 16.1003L34.2995 0.54948C34.6513 0.197654 35.1285 -9.80805e-09 35.626 0C36.1236 9.80805e-09 36.6008 0.197654 36.9526 0.54948C37.3044 0.901306 37.5021 1.37849 37.5021 1.87604C37.5021 2.3736 37.3044 2.85078 36.9526 3.20261L21.4018 18.751L36.9526 34.2995Z" fill="#515E79"/>
</svg>
