<svg width="44" height="44" viewBox="0 0 44 44" fill="none" xmlns="http://www.w3.org/2000/svg">
<g clip-path="url(#clip0_4_3904)">
<path d="M29.6154 13H14.3846C13.6196 13 13 13.6196 13 14.3846V29.6154C13 30.3804 13.6196 31 14.3846 31H29.6154C30.3804 31 31 30.3804 31 29.6154V14.3846C31 13.6196 30.3804 13 29.6154 13ZM19.2308 26.1538C19.2308 26.5363 18.921 26.8462 18.5385 26.8462C18.156 26.8462 17.8462 26.5363 17.8462 26.1538V20.6154C17.8462 20.2329 18.156 19.9231 18.5385 19.9231C18.921 19.9231 19.2308 20.2329 19.2308 20.6154V26.1538ZM18.5385 19.2308C17.9647 19.2308 17.5 18.7661 17.5 18.1923C17.5 17.6186 17.9647 17.1538 18.5385 17.1538C19.1122 17.1538 19.5769 17.6186 19.5769 18.1923C19.5769 18.7661 19.1122 19.2308 18.5385 19.2308ZM26.8462 26.1538C26.8462 26.5363 26.5363 26.8462 26.1538 26.8462C25.7713 26.8462 25.4615 26.5363 25.4615 26.1538V23.0385C25.4615 22.0822 24.687 21.3077 23.7308 21.3077C22.7745 21.3077 22 22.0822 22 23.0385V26.1538C22 26.5363 21.6902 26.8462 21.3077 26.8462C20.9252 26.8462 20.6154 26.5363 20.6154 26.1538V20.6154C20.6171 20.2329 20.9287 19.9248 21.3112 19.9265C21.6313 19.9283 21.9091 20.1489 21.9818 20.4613C23.4054 19.4956 25.343 19.8668 26.3088 21.2904C26.6584 21.8062 26.8462 22.4154 26.8462 23.0385V26.1538Z" fill="#E1B0C1"/>
</g>
<defs>
<clipPath id="clip0_4_3904">
<rect width="18" height="18" fill="white" transform="translate(13 13)"/>
</clipPath>
</defs>
</svg>
