<svg width="44" height="44" viewBox="0 0 44 44" fill="none" xmlns="http://www.w3.org/2000/svg">
<g clip-path="url(#clip0_4_3907)">
<path d="M30.5439 17.5932C30.3904 17.0296 29.9573 16.5699 29.3795 16.3574C26.6249 15.3596 22.2406 15.3687 21.9995 15.3687C21.7584 15.3687 17.3742 15.3596 14.6195 16.3574C14.0417 16.5699 13.6086 17.0296 13.4551 17.5932C13.247 18.3453 12.9995 19.7199 12.9995 22.0002C12.9995 24.2806 13.247 25.6551 13.4551 26.4072C13.6086 26.9709 14.0417 27.4313 14.6195 27.6439C17.2584 28.5987 21.3888 28.6318 21.9465 28.6318H22.0525C22.6102 28.6318 26.743 28.5987 29.3795 27.6439C29.9573 27.4313 30.3904 26.9709 30.5439 26.4072C30.752 25.6536 30.9995 24.2806 30.9995 22.0002C30.9995 19.7199 30.752 18.3453 30.5439 17.5932ZM24.7493 22.2512L20.8922 24.6627C20.7443 24.7554 20.545 24.7177 20.4462 24.579C20.4109 24.5293 20.3924 24.4713 20.3924 24.4117V19.5888C20.3924 19.4222 20.5362 19.2873 20.7138 19.2873C20.7773 19.2873 20.8392 19.3046 20.8922 19.3378L24.7493 21.7493C24.8972 21.8412 24.9374 22.0289 24.8385 22.1675C24.8152 22.2007 24.7847 22.2293 24.7493 22.2512Z" fill="#E1B0C1"/>
</g>
<defs>
<clipPath id="clip0_4_3907">
<rect width="18" height="18" fill="white" transform="translate(12.9995 13)"/>
</clipPath>
</defs>
</svg>
