<svg width="46" height="46" viewBox="0 0 46 46" fill="none" xmlns="http://www.w3.org/2000/svg">
<path d="M23 7.1875C19.5883 7.1875 16.2532 8.19919 13.4164 10.0946C10.5797 11.9901 8.36868 14.6842 7.06307 17.8362C5.75746 20.9882 5.41585 24.4566 6.08145 27.8028C6.74704 31.149 8.38994 34.2226 10.8024 36.6351C13.2149 39.0475 16.2885 40.6904 19.6347 41.356C22.9809 42.0216 26.4493 41.68 29.6013 40.3744C32.7533 39.0688 35.4474 36.8578 37.3428 34.0211C39.2383 31.1843 40.25 27.8492 40.25 24.4375C40.2448 19.8641 38.4257 15.4796 35.1918 12.2457C31.9579 9.01182 27.5734 7.19273 23 7.1875ZM23 38.8125C20.1569 38.8125 17.3776 37.9694 15.0137 36.3899C12.6497 34.8103 10.8072 32.5653 9.71922 29.9386C8.63121 27.3119 8.34654 24.4216 8.9012 21.6331C9.45587 18.8446 10.825 16.2832 12.8353 14.2728C14.8457 12.2625 17.4071 10.8934 20.1956 10.3387C22.984 9.78405 25.8744 10.0687 28.5011 11.1567C31.1278 12.2447 33.3728 14.0872 34.9524 16.4512C36.5319 18.8151 37.375 21.5944 37.375 24.4375C37.3707 28.2487 35.8548 31.9025 33.1599 34.5974C30.465 37.2923 26.8112 38.8082 23 38.8125ZM31.2045 16.233C31.3382 16.3665 31.4442 16.525 31.5165 16.6995C31.5889 16.874 31.6261 17.0611 31.6261 17.25C31.6261 17.4389 31.5889 17.626 31.5165 17.8005C31.4442 17.975 31.3382 18.1335 31.2045 18.267L24.017 25.4545C23.8835 25.5881 23.7249 25.694 23.5504 25.7663C23.3759 25.8386 23.1889 25.8758 23 25.8758C22.8111 25.8758 22.6241 25.8386 22.4496 25.7663C22.2751 25.694 22.1165 25.5881 21.983 25.4545C21.8494 25.321 21.7435 25.1624 21.6712 24.9879C21.5989 24.8134 21.5617 24.6264 21.5617 24.4375C21.5617 24.2486 21.5989 24.0616 21.6712 23.8871C21.7435 23.7126 21.8494 23.554 21.983 23.4205L29.1705 16.233C29.304 16.0993 29.4625 15.9933 29.637 15.9209C29.8115 15.8486 29.9986 15.8114 30.1875 15.8114C30.3764 15.8114 30.5635 15.8486 30.738 15.9209C30.9125 15.9933 31.071 16.0993 31.2045 16.233ZM17.25 2.875C17.25 2.49375 17.4014 2.12812 17.671 1.85853C17.9406 1.58895 18.3062 1.4375 18.6875 1.4375H27.3125C27.6937 1.4375 28.0594 1.58895 28.329 1.85853C28.5985 2.12812 28.75 2.49375 28.75 2.875C28.75 3.25625 28.5985 3.62188 28.329 3.89147C28.0594 4.16105 27.6937 4.3125 27.3125 4.3125H18.6875C18.3062 4.3125 17.9406 4.16105 17.671 3.89147C17.4014 3.62188 17.25 3.25625 17.25 2.875Z" fill="#2E2A39"/>
</svg>
